<svg width="24" height="24" viewBox="0 0 24 24" fill="none" xmlns="http://www.w3.org/2000/svg">
  <path d="M17.523 15.3414C18.158 15.3414 18.6729 14.8265 18.6729 14.1914C18.6729 13.5563 18.158 13.0414 17.523 13.0414C16.8879 13.0414 16.373 13.5563 16.373 14.1914C16.373 14.8265 16.8879 15.3414 17.523 15.3414Z" fill="currentColor"/>
  <path d="M6.477 15.3414C7.11209 15.3414 7.627 14.8265 7.627 14.1914C7.627 13.5563 7.11209 13.0414 6.477 13.0414C5.84191 13.0414 5.327 13.5563 5.327 14.1914C5.327 14.8265 5.84191 15.3414 6.477 15.3414Z" fill="currentColor"/>
  <path d="M12 2L15.09 8H8.91L12 2Z" fill="currentColor"/>
  <path d="M17.5 9C18.3284 9 19 9.67157 19 10.5V16.5C19 17.3284 18.3284 18 17.5 18C16.6716 18 16 17.3284 16 16.5V10.5C16 9.67157 16.6716 9 17.5 9Z" fill="currentColor"/>
  <path d="M6.5 9C7.32843 9 8 9.67157 8 10.5V16.5C8 17.3284 7.32843 18 6.5 18C5.67157 18 5 17.3284 5 16.5V10.5C5 9.67157 5.67157 9 6.5 9Z" fill="currentColor"/>
  <path d="M9 8H15V19C15 20.1046 14.1046 21 13 21H11C9.89543 21 9 20.1046 9 19V8Z" fill="currentColor"/>
</svg>