<svg width="24" height="24" viewBox="0 0 24 24" fill="none" xmlns="http://www.w3.org/2000/svg">
  <path d="M18.71 19.5C17.88 20.74 17 21.95 15.66 21.97C14.32 21.99 13.89 21.18 12.37 21.18C10.84 21.18 10.37 21.95 9.09997 21.99C7.78997 22.03 6.79997 20.68 5.95997 19.47C4.24997 17 2.93997 12.45 4.69997 9.39C5.56997 7.87 7.13997 6.91 8.85997 6.89C10.15 6.87 11.36 7.74 12.1 7.74C12.83 7.74 14.24 6.68 15.8 6.84C16.47 6.87 18.05 7.13 19.11 8.49C19.05 8.53 17.79 9.33 17.8 10.99C17.82 13.05 19.62 13.81 19.64 13.82C19.62 13.9 19.33 14.94 18.71 19.5Z" fill="currentColor"/>
  <path d="M13 3.5C13.73 2.67 14.94 2.04 15.94 2C16.07 3.17 15.6 4.35 14.9 5.19C14.21 6.04 13.07 6.7 11.95 6.61C11.8 5.46 12.36 4.26 13 3.5Z" fill="currentColor"/>
</svg>