<svg width="40" height="40" viewBox="0 0 40 40" fill="none" xmlns="http://www.w3.org/2000/svg">
  <defs>
    <linearGradient id="baseGradient" x1="0%" y1="0%" x2="100%" y2="100%">
      <stop offset="0%" style="stop-color:#0052FF"/>
      <stop offset="100%" style="stop-color:#0084FF"/>
    </linearGradient>
  </defs>
  
  <!-- Circle background -->
  <circle cx="20" cy="20" r="20" fill="url(#baseGradient)"/>
  
  <!-- Base 'B' logo -->
  <path d="M12 10H18C21 10 23 12 23 15C23 16.5 22.2 17.8 21 18.5C22.8 19.2 24 21 24 23C24 26 22 28 19 28H12V10ZM16 13V17H18C19.1 17 20 16.1 20 15S19.1 13 18 13H16ZM16 20V25H19C20.1 25 21 24.1 21 23S20.1 20 19 20H16Z" fill="white"/>
</svg>