<svg width="32" height="32" viewBox="0 0 32 32" fill="none" xmlns="http://www.w3.org/2000/svg">
  <defs>
    <linearGradient id="biometricGradient" x1="0%" y1="0%" x2="100%" y2="100%">
      <stop offset="0%" style="stop-color:#8B5CF6"/>
      <stop offset="100%" style="stop-color:#06B6D4"/>
    </linearGradient>
  </defs>
  
  <!-- Fingerprint lines -->
  <path d="M16 8C12 8 8 12 8 16C8 20 12 24 16 24C20 24 24 20 24 16C24 12 20 8 16 8Z" fill="none" stroke="url(#biometricGradient)" stroke-width="1.5"/>
  <path d="M16 12C14 12 12 14 12 16C12 18 14 20 16 20C18 20 20 18 20 16C20 14 18 12 16 12Z" fill="none" stroke="url(#biometricGradient)" stroke-width="1.5"/>
  <path d="M16 15C15.5 15 15 15.5 15 16C15 16.5 15.5 17 16 17C16.5 17 17 16.5 17 16C17 15.5 16.5 15 16 15Z" fill="url(#biometricGradient)"/>
  
  <!-- Additional ridges -->
  <path d="M10 13C11 11 13 10 16 10M22 13C21 11 19 10 16 10M10 19C11 21 13 22 16 22M22 19C21 21 19 22 16 22" stroke="url(#biometricGradient)" stroke-width="1" stroke-linecap="round"/>
</svg>