<svg width="40" height="40" viewBox="0 0 40 40" fill="none" xmlns="http://www.w3.org/2000/svg">
  <defs>
    <linearGradient id="compoundGradient" x1="0%" y1="0%" x2="100%" y2="100%">
      <stop offset="0%" style="stop-color:#00D395"/>
      <stop offset="100%" style="stop-color:#00D395"/>
    </linearGradient>
  </defs>
  
  <!-- Circle background -->
  <circle cx="20" cy="20" r="20" fill="url(#compoundGradient)"/>
  
  <!-- Compound logo -->
  <path d="M12 18C12 14 15 12 18 12H22C25 12 28 14 28 18V22C28 26 25 28 22 28H18C15 28 12 26 12 22V18Z" fill="white"/>
  <path d="M16 16C16 15 17 14 18 14H22C23 14 24 15 24 16V24C24 25 23 26 22 26H18C17 26 16 25 16 24V16Z" fill="#00D395"/>
  <circle cx="20" cy="20" r="3" fill="white"/>
</svg>