<svg width="280" height="560" viewBox="0 0 280 560" fill="none" xmlns="http://www.w3.org/2000/svg">
  <defs>
    <linearGradient id="activityScreenGradient" x1="0%" y1="0%" x2="100%" y2="100%">
      <stop offset="0%" style="stop-color:#1A1B23"/>
      <stop offset="100%" style="stop-color:#2D1B69"/>
    </linearGradient>
    <linearGradient id="activityCardGradient" x1="0%" y1="0%" x2="100%" y2="100%">
      <stop offset="0%" style="stop-color:#8B5CF6"/>
      <stop offset="100%" style="stop-color:#06B6D4"/>
    </linearGradient>
  </defs>
  
  <!-- Phone background -->
  <rect x="0" y="0" width="280" height="560" rx="28" fill="url(#activityScreenGradient)"/>
  
  <!-- Header -->
  <text x="24" y="60" font-family="Arial" font-size="20" font-weight="bold" fill="white">Activity</text>
  <text x="24" y="80" font-family="Arial" font-size="12" fill="#9CA3AF">Transaction history</text>
  
  <!-- Transaction 1 -->
  <rect x="24" y="110" width="232" height="60" rx="8" fill="rgba(139, 92, 246, 0.05)"/>
  <circle cx="44" cy="130" r="8" fill="#10B981"/>
  <text x="64" y="128" font-family="Arial" font-size="12" fill="white">Received ETH</text>
  <text x="64" y="142" font-family="Arial" font-size="10" fill="#9CA3AF">From: 0x7a2b...9f4c</text>
  <text x="64" y="155" font-family="Arial" font-size="10" fill="#9CA3AF">2 hours ago</text>
  <text x="220" y="135" font-family="Arial" font-size="12" fill="#10B981">+0.25 ETH</text>
  
  <!-- Transaction 2 -->
  <rect x="24" y="180" width="232" height="60" rx="8" fill="rgba(139, 92, 246, 0.05)"/>
  <circle cx="44" cy="200" r="8" fill="#06B6D4"/>
  <text x="64" y="198" font-family="Arial" font-size="12" fill="white">Swapped USDC → ETH</text>
  <text x="64" y="212" font-family="Arial" font-size="10" fill="#9CA3AF">Via Uniswap</text>
  <text x="64" y="225" font-family="Arial" font-size="10" fill="#9CA3AF">5 hours ago</text>
  <text x="200" y="205" font-family="Arial" font-size="12" fill="white">1,500 USDC</text>
  
  <!-- Transaction 3 -->
  <rect x="24" y="250" width="232" height="60" rx="8" fill="rgba(139, 92, 246, 0.05)"/>
  <circle cx="44" cy="270" r="8" fill="#F59E0B"/>
  <text x="64" y="268" font-family="Arial" font-size="12" fill="white">Sent BTC</text>
  <text x="64" y="282" font-family="Arial" font-size="10" fill="#9CA3AF">To: bc1q...7x9m</text>
  <text x="64" y="295" font-family="Arial" font-size="10" fill="#9CA3AF">1 day ago</text>
  <text x="220" y="275" font-family="Arial" font-size="12" fill="#F59E0B">-0.01 BTC</text>
  
  <!-- Transaction 4 -->
  <rect x="24" y="320" width="232" height="60" rx="8" fill="rgba(139, 92, 246, 0.05)"/>
  <circle cx="44" cy="340" r="8" fill="#EC4899"/>
  <text x="64" y="338" font-family="Arial" font-size="12" fill="white">NFT Purchase</text>
  <text x="64" y="352" font-family="Arial" font-size="10" fill="#9CA3AF">Bored Ape #4832</text>
  <text x="64" y="365" font-family="Arial" font-size="10" fill="#9CA3AF">2 days ago</text>
  <text x="220" y="345" font-family="Arial" font-size="12" fill="white">1.2 ETH</text>
  
  <!-- Filter buttons -->
  <text x="24" y="420" font-family="Arial" font-size="14" font-weight="bold" fill="white">Filter by:</text>
  
  <rect x="24" y="440" width="48" height="28" rx="14" fill="url(#activityCardGradient)"/>
  <text x="48" y="457" font-family="Arial" font-size="10" fill="white" text-anchor="middle">All</text>
  
  <rect x="80" y="440" width="48" height="28" rx="14" fill="rgba(139, 92, 246, 0.2)"/>
  <text x="104" y="457" font-family="Arial" font-size="10" fill="white" text-anchor="middle">Sent</text>
  
  <rect x="136" y="440" width="60" height="28" rx="14" fill="rgba(139, 92, 246, 0.2)"/>
  <text x="166" y="457" font-family="Arial" font-size="10" fill="white" text-anchor="middle">Received</text>
  
  <rect x="204" y="440" width="52" height="28" rx="14" fill="rgba(139, 92, 246, 0.2)"/>
  <text x="230" y="457" font-family="Arial" font-size="10" fill="white" text-anchor="middle">Swaps</text>
</svg>