<svg width="48" height="48" viewBox="0 0 48 48" fill="none" xmlns="http://www.w3.org/2000/svg">
  <defs>
    <linearGradient id="step2Gradient" x1="0%" y1="0%" x2="100%" y2="100%">
      <stop offset="0%" style="stop-color:#8B5CF6"/>
      <stop offset="100%" style="stop-color:#06B6D4"/>
    </linearGradient>
  </defs>
  
  <!-- Circle background -->
  <circle cx="24" cy="24" r="20" fill="url(#step2Gradient)" opacity="0.1" stroke="url(#step2Gradient)" stroke-width="2"/>
  
  <!-- Settings/Configuration icon -->
  <circle cx="24" cy="24" r="3" fill="url(#step2Gradient)"/>
  <path d="M19.4 15L20.4 17.5C20.6 18.1 21.1 18.4 21.7 18.4H22.3C22.9 18.4 23.4 18.1 23.6 17.5L24.6 15C25.4 15.3 26.1 15.8 26.7 16.4L24.5 19.4C24.1 19.9 24.1 20.6 24.5 21.1L24.9 21.7C25.3 22.2 26 22.2 26.5 21.9L29.5 19.7C29.8 20.4 30 21.2 30 22H26.5C25.9 22 25.4 22.4 25.4 23V24C25.4 24.6 25.9 25 26.5 25H30C30 25.8 29.8 26.6 29.5 27.3L26.5 25.1C26 24.8 25.3 24.8 24.9 25.3L24.5 25.9C24.1 26.4 24.1 27.1 24.5 27.6L26.7 30.6C26.1 31.2 25.4 31.7 24.6 32L23.6 29.5C23.4 28.9 22.9 28.6 22.3 28.6H21.7C21.1 28.6 20.6 28.9 20.4 29.5L19.4 32C18.6 31.7 17.9 31.2 17.3 30.6L19.5 27.6C19.9 27.1 19.9 26.4 19.5 25.9L19.1 25.3C18.7 24.8 18 24.8 17.5 25.1L14.5 27.3C14.2 26.6 14 25.8 14 25H17.5C18.1 25 18.6 24.6 18.6 24V23C18.6 22.4 18.1 22 17.5 22H14C14 21.2 14.2 20.4 14.5 19.7L17.5 21.9C18 22.2 18.7 22.2 19.1 21.7L19.5 21.1C19.9 20.6 19.9 19.9 19.5 19.4L17.3 16.4C17.9 15.8 18.6 15.3 19.4 15Z" stroke="url(#step2Gradient)" stroke-width="1.5" fill="none"/>
</svg>