<svg width="48" height="48" viewBox="0 0 48 48" fill="none" xmlns="http://www.w3.org/2000/svg">
  <defs>
    <linearGradient id="step3Gradient" x1="0%" y1="0%" x2="100%" y2="100%">
      <stop offset="0%" style="stop-color:#8B5CF6"/>
      <stop offset="100%" style="stop-color:#06B6D4"/>
    </linearGradient>
  </defs>
  
  <!-- Circle background -->
  <circle cx="24" cy="24" r="20" fill="url(#step3Gradient)" opacity="0.1" stroke="url(#step3Gradient)" stroke-width="2"/>
  
  <!-- Rocket/Launch icon -->
  <path d="M18 30L14 34L18 30ZM18 30L22 26L18 30ZM30 18L34 14L30 18ZM30 18L26 22L30 18ZM22 26L18 30L22 26ZM26 22L30 18L26 22ZM22 26C22 26 20 28 18 30C16 32 14 34 14 34C14 34 16 32 18 30C20 28 22 26 22 26ZM26 22C26 22 28 20 30 18C32 16 34 14 34 14C34 14 32 16 30 18C28 20 26 22 26 22Z" stroke="url(#step3Gradient)" stroke-width="2" stroke-linecap="round" stroke-linejoin="round" fill="none"/>
  <path d="M24 15C28 15 32 19 32 23L26 29L22 25C22 21 24 15 24 15Z" fill="url(#step3Gradient)" opacity="0.6"/>
  <circle cx="27" cy="21" r="2" fill="white"/>
</svg>