<svg width="40" height="40" viewBox="0 0 40 40" fill="none" xmlns="http://www.w3.org/2000/svg">
  <defs>
    <linearGradient id="uniswapGradient" x1="0%" y1="0%" x2="100%" y2="100%">
      <stop offset="0%" style="stop-color:#FF007A"/>
      <stop offset="100%" style="stop-color:#FF007A"/>
    </linearGradient>
  </defs>
  
  <!-- Circle background -->
  <circle cx="20" cy="20" r="20" fill="url(#uniswapGradient)"/>
  
  <!-- Uniswap unicorn -->
  <path d="M15 10C15 10 18 8 22 10C26 12 28 16 26 20C24 24 20 26 16 24C12 22 10 18 12 14C14 10 15 10 15 10Z" fill="white"/>
  <circle cx="18" cy="15" r="2" fill="#FF007A"/>
  <path d="M20 18C20 18 22 20 24 22C26 24 28 26 26 28C24 30 22 28 20 26C18 24 16 22 18 20C20 18 20 18 20 18Z" fill="white"/>
</svg>